<svg xmlns="http://www.w3.org/2000/svg" xmlns:xlink="http://www.w3.org/1999/xlink" width="1080" zoomAndPan="magnify" viewBox="0 0 810 809.999993" height="1080" preserveAspectRatio="xMidYMid meet" version="1.0"><defs><g/><clipPath id="4173bbc754"><rect x="0" width="468" y="0" height="806"/></clipPath></defs><g transform="matrix(1, 0, 0, 1, 174, 0.000000000000039746)"><g clip-path="url(#4173bbc754)"><g fill="#ffde59" fill-opacity="1"><g transform="translate(0.986617, 735.688745)"><g><path d="M 312.765625 -492.765625 L 185.46875 -492.765625 L 185.46875 -370.25 L 396.265625 -370.25 C 396.265625 -343.332031 390.332031 -319.378906 378.46875 -298.390625 C 366.601562 -277.398438 349.601562 -260.859375 327.46875 -248.765625 C 305.34375 -236.679688 279 -230.640625 248.4375 -230.640625 L 185.46875 -230.640625 L 185.46875 -134.140625 C 185.46875 -108.128906 178.394531 -84.398438 164.25 -62.953125 C 150.101562 -41.515625 131.738281 -24.519531 109.15625 -11.96875 C 86.570312 0.570312 62.273438 6.84375 36.265625 6.84375 L 34.21875 6.84375 L 34.21875 -500.296875 C 34.21875 -525.835938 40.488281 -549.21875 53.03125 -570.4375 C 65.582031 -591.65625 82.238281 -608.648438 103 -621.421875 C 123.757812 -634.203125 146.914062 -640.820312 172.46875 -641.28125 L 172.46875 -641.953125 L 458.546875 -641.953125 C 458.546875 -613.671875 452.382812 -588.234375 440.0625 -565.640625 C 427.738281 -543.054688 410.738281 -525.265625 389.0625 -512.265625 C 367.394531 -499.265625 341.960938 -492.765625 312.765625 -492.765625 Z M 312.765625 -492.765625 "/></g></g></g></g></g></svg>